<mxfile host="app.diagrams.net" modified="2024-03-27T17:39:33.636Z" agent="Mozilla/5.0 (Windows NT 10.0; Win64; x64) AppleWebKit/537.36 (KHTML, like Gecko) Chrome/123.0.0.0 Safari/537.36" etag="mTiG4OwNj70FKHkjg0sc" version="24.2.0" type="device">
  <diagram name="PÃ¡gina-1" id="D-0jdvNuqakPEcL21Xn9">
    <mxGraphModel dx="1862" dy="541" grid="1" gridSize="10" guides="1" tooltips="1" connect="1" arrows="1" fold="1" page="1" pageScale="1" pageWidth="827" pageHeight="1169" math="0" shadow="0">
      <root>
        <mxCell id="0" />
        <mxCell id="1" parent="0" />
        <mxCell id="15XDuqP0ykz5soVIeBwF-1" value="Cases" style="shape=umlFrame;whiteSpace=wrap;html=1;pointerEvents=0;sketch=1;hachureGap=4;jiggle=2;curveFitting=1;strokeColor=#788AA3;fontFamily=Architects Daughter;fontSource=https%3A%2F%2Ffonts.googleapis.com%2Fcss%3Ffamily%3DArchitects%2BDaughter;fontColor=#46495D;fillColor=#B2C9AB;movable=0;resizable=0;rotatable=0;deletable=0;editable=0;locked=1;connectable=0;" parent="1" vertex="1">
          <mxGeometry x="200" y="160" width="400" height="2240" as="geometry" />
        </mxCell>
        <mxCell id="15XDuqP0ykz5soVIeBwF-2" value="Actors" style="shape=umlFrame;whiteSpace=wrap;html=1;pointerEvents=0;sketch=1;hachureGap=4;jiggle=2;curveFitting=1;strokeColor=#788AA3;fontFamily=Architects Daughter;fontSource=https%3A%2F%2Ffonts.googleapis.com%2Fcss%3Ffamily%3DArchitects%2BDaughter;fontColor=#46495D;fillColor=#B2C9AB;movable=0;resizable=0;rotatable=0;deletable=0;editable=0;locked=1;connectable=0;" parent="1" vertex="1">
          <mxGeometry x="-320" y="160" width="400" height="2240" as="geometry" />
        </mxCell>
        <mxCell id="15XDuqP0ykz5soVIeBwF-3" value="DB" style="shape=umlFrame;whiteSpace=wrap;html=1;pointerEvents=0;sketch=1;hachureGap=4;jiggle=2;curveFitting=1;strokeColor=#788AA3;fontFamily=Architects Daughter;fontSource=https%3A%2F%2Ffonts.googleapis.com%2Fcss%3Ffamily%3DArchitects%2BDaughter;fontColor=#46495D;fillColor=#B2C9AB;movable=0;resizable=0;rotatable=0;deletable=0;editable=0;locked=1;connectable=0;" parent="1" vertex="1">
          <mxGeometry x="720" y="160" width="400" height="1520" as="geometry" />
        </mxCell>
        <mxCell id="15XDuqP0ykz5soVIeBwF-55" style="edgeStyle=orthogonalEdgeStyle;rounded=0;sketch=1;hachureGap=4;jiggle=2;curveFitting=1;orthogonalLoop=1;jettySize=auto;html=1;exitX=0.5;exitY=0.5;exitDx=0;exitDy=0;exitPerimeter=0;entryX=0;entryY=0.5;entryDx=0;entryDy=0;strokeColor=#788AA3;fontFamily=Architects Daughter;fontSource=https%3A%2F%2Ffonts.googleapis.com%2Fcss%3Ffamily%3DArchitects%2BDaughter;fontColor=#46495D;fillColor=#B2C9AB;" parent="1" source="15XDuqP0ykz5soVIeBwF-4" target="15XDuqP0ykz5soVIeBwF-6" edge="1">
          <mxGeometry relative="1" as="geometry" />
        </mxCell>
        <mxCell id="15XDuqP0ykz5soVIeBwF-58" style="edgeStyle=orthogonalEdgeStyle;rounded=0;sketch=1;hachureGap=4;jiggle=2;curveFitting=1;orthogonalLoop=1;jettySize=auto;html=1;exitX=0.5;exitY=0.5;exitDx=0;exitDy=0;exitPerimeter=0;entryX=0;entryY=0.5;entryDx=0;entryDy=0;strokeColor=#788AA3;fontFamily=Architects Daughter;fontSource=https%3A%2F%2Ffonts.googleapis.com%2Fcss%3Ffamily%3DArchitects%2BDaughter;fontColor=#46495D;fillColor=#B2C9AB;" parent="1" source="15XDuqP0ykz5soVIeBwF-4" target="15XDuqP0ykz5soVIeBwF-19" edge="1">
          <mxGeometry relative="1" as="geometry" />
        </mxCell>
        <mxCell id="15XDuqP0ykz5soVIeBwF-61" style="edgeStyle=orthogonalEdgeStyle;rounded=0;sketch=1;hachureGap=4;jiggle=2;curveFitting=1;orthogonalLoop=1;jettySize=auto;html=1;exitX=0.5;exitY=0.5;exitDx=0;exitDy=0;exitPerimeter=0;entryX=0;entryY=0.5;entryDx=0;entryDy=0;strokeColor=#788AA3;fontFamily=Architects Daughter;fontSource=https%3A%2F%2Ffonts.googleapis.com%2Fcss%3Ffamily%3DArchitects%2BDaughter;fontColor=#46495D;fillColor=#B2C9AB;" parent="1" source="15XDuqP0ykz5soVIeBwF-4" target="15XDuqP0ykz5soVIeBwF-21" edge="1">
          <mxGeometry relative="1" as="geometry" />
        </mxCell>
        <mxCell id="15XDuqP0ykz5soVIeBwF-64" style="edgeStyle=orthogonalEdgeStyle;rounded=0;sketch=1;hachureGap=4;jiggle=2;curveFitting=1;orthogonalLoop=1;jettySize=auto;html=1;exitX=0.5;exitY=0.5;exitDx=0;exitDy=0;exitPerimeter=0;entryX=0;entryY=0.5;entryDx=0;entryDy=0;strokeColor=#788AA3;fontFamily=Architects Daughter;fontSource=https%3A%2F%2Ffonts.googleapis.com%2Fcss%3Ffamily%3DArchitects%2BDaughter;fontColor=#46495D;fillColor=#B2C9AB;" parent="1" source="15XDuqP0ykz5soVIeBwF-4" target="15XDuqP0ykz5soVIeBwF-9" edge="1">
          <mxGeometry relative="1" as="geometry" />
        </mxCell>
        <mxCell id="15XDuqP0ykz5soVIeBwF-83" style="edgeStyle=orthogonalEdgeStyle;rounded=0;sketch=1;hachureGap=4;jiggle=2;curveFitting=1;orthogonalLoop=1;jettySize=auto;html=1;exitX=0.5;exitY=0.5;exitDx=0;exitDy=0;exitPerimeter=0;entryX=0;entryY=0.5;entryDx=0;entryDy=0;strokeColor=#788AA3;fontFamily=Architects Daughter;fontSource=https%3A%2F%2Ffonts.googleapis.com%2Fcss%3Ffamily%3DArchitects%2BDaughter;fontColor=#46495D;fillColor=#B2C9AB;" parent="1" source="15XDuqP0ykz5soVIeBwF-4" target="15XDuqP0ykz5soVIeBwF-12" edge="1">
          <mxGeometry relative="1" as="geometry" />
        </mxCell>
        <mxCell id="15XDuqP0ykz5soVIeBwF-84" style="edgeStyle=orthogonalEdgeStyle;rounded=0;sketch=1;hachureGap=4;jiggle=2;curveFitting=1;orthogonalLoop=1;jettySize=auto;html=1;exitX=0.5;exitY=0.5;exitDx=0;exitDy=0;exitPerimeter=0;entryX=0;entryY=0.5;entryDx=0;entryDy=0;strokeColor=#788AA3;fontFamily=Architects Daughter;fontSource=https%3A%2F%2Ffonts.googleapis.com%2Fcss%3Ffamily%3DArchitects%2BDaughter;fontColor=#46495D;fillColor=#B2C9AB;" parent="1" source="15XDuqP0ykz5soVIeBwF-4" target="15XDuqP0ykz5soVIeBwF-15" edge="1">
          <mxGeometry relative="1" as="geometry" />
        </mxCell>
        <mxCell id="15XDuqP0ykz5soVIeBwF-85" style="edgeStyle=orthogonalEdgeStyle;rounded=0;sketch=1;hachureGap=4;jiggle=2;curveFitting=1;orthogonalLoop=1;jettySize=auto;html=1;exitX=0.5;exitY=0.5;exitDx=0;exitDy=0;exitPerimeter=0;entryX=0;entryY=0.5;entryDx=0;entryDy=0;strokeColor=#788AA3;fontFamily=Architects Daughter;fontSource=https%3A%2F%2Ffonts.googleapis.com%2Fcss%3Ffamily%3DArchitects%2BDaughter;fontColor=#46495D;fillColor=#B2C9AB;" parent="1" source="15XDuqP0ykz5soVIeBwF-4" target="15XDuqP0ykz5soVIeBwF-23" edge="1">
          <mxGeometry relative="1" as="geometry" />
        </mxCell>
        <mxCell id="15XDuqP0ykz5soVIeBwF-86" style="edgeStyle=orthogonalEdgeStyle;rounded=0;sketch=1;hachureGap=4;jiggle=2;curveFitting=1;orthogonalLoop=1;jettySize=auto;html=1;exitX=0.5;exitY=0.5;exitDx=0;exitDy=0;exitPerimeter=0;entryX=0;entryY=0.5;entryDx=0;entryDy=0;strokeColor=#788AA3;fontFamily=Architects Daughter;fontSource=https%3A%2F%2Ffonts.googleapis.com%2Fcss%3Ffamily%3DArchitects%2BDaughter;fontColor=#46495D;fillColor=#B2C9AB;" parent="1" source="15XDuqP0ykz5soVIeBwF-4" target="15XDuqP0ykz5soVIeBwF-26" edge="1">
          <mxGeometry relative="1" as="geometry" />
        </mxCell>
        <mxCell id="15XDuqP0ykz5soVIeBwF-87" style="edgeStyle=orthogonalEdgeStyle;rounded=0;sketch=1;hachureGap=4;jiggle=2;curveFitting=1;orthogonalLoop=1;jettySize=auto;html=1;exitX=0.5;exitY=0.5;exitDx=0;exitDy=0;exitPerimeter=0;entryX=0;entryY=0.5;entryDx=0;entryDy=0;strokeColor=#788AA3;fontFamily=Architects Daughter;fontSource=https%3A%2F%2Ffonts.googleapis.com%2Fcss%3Ffamily%3DArchitects%2BDaughter;fontColor=#46495D;fillColor=#B2C9AB;" parent="1" source="15XDuqP0ykz5soVIeBwF-4" target="15XDuqP0ykz5soVIeBwF-31" edge="1">
          <mxGeometry relative="1" as="geometry" />
        </mxCell>
        <mxCell id="15XDuqP0ykz5soVIeBwF-88" style="edgeStyle=orthogonalEdgeStyle;rounded=0;sketch=1;hachureGap=4;jiggle=2;curveFitting=1;orthogonalLoop=1;jettySize=auto;html=1;exitX=0.5;exitY=0.5;exitDx=0;exitDy=0;exitPerimeter=0;entryX=0;entryY=0.5;entryDx=0;entryDy=0;strokeColor=#788AA3;fontFamily=Architects Daughter;fontSource=https%3A%2F%2Ffonts.googleapis.com%2Fcss%3Ffamily%3DArchitects%2BDaughter;fontColor=#46495D;fillColor=#B2C9AB;" parent="1" source="15XDuqP0ykz5soVIeBwF-4" target="15XDuqP0ykz5soVIeBwF-35" edge="1">
          <mxGeometry relative="1" as="geometry" />
        </mxCell>
        <mxCell id="15XDuqP0ykz5soVIeBwF-89" style="edgeStyle=orthogonalEdgeStyle;rounded=0;sketch=1;hachureGap=4;jiggle=2;curveFitting=1;orthogonalLoop=1;jettySize=auto;html=1;exitX=0.5;exitY=0.5;exitDx=0;exitDy=0;exitPerimeter=0;entryX=0;entryY=0.5;entryDx=0;entryDy=0;strokeColor=#788AA3;fontFamily=Architects Daughter;fontSource=https%3A%2F%2Ffonts.googleapis.com%2Fcss%3Ffamily%3DArchitects%2BDaughter;fontColor=#46495D;fillColor=#B2C9AB;" parent="1" source="15XDuqP0ykz5soVIeBwF-4" target="15XDuqP0ykz5soVIeBwF-39" edge="1">
          <mxGeometry relative="1" as="geometry" />
        </mxCell>
        <mxCell id="15XDuqP0ykz5soVIeBwF-90" style="edgeStyle=orthogonalEdgeStyle;rounded=0;sketch=1;hachureGap=4;jiggle=2;curveFitting=1;orthogonalLoop=1;jettySize=auto;html=1;exitX=0.5;exitY=0.5;exitDx=0;exitDy=0;exitPerimeter=0;entryX=0;entryY=0.5;entryDx=0;entryDy=0;strokeColor=#788AA3;fontFamily=Architects Daughter;fontSource=https%3A%2F%2Ffonts.googleapis.com%2Fcss%3Ffamily%3DArchitects%2BDaughter;fontColor=#46495D;fillColor=#B2C9AB;" parent="1" source="15XDuqP0ykz5soVIeBwF-4" target="15XDuqP0ykz5soVIeBwF-44" edge="1">
          <mxGeometry relative="1" as="geometry" />
        </mxCell>
        <mxCell id="15XDuqP0ykz5soVIeBwF-91" style="edgeStyle=orthogonalEdgeStyle;rounded=0;sketch=1;hachureGap=4;jiggle=2;curveFitting=1;orthogonalLoop=1;jettySize=auto;html=1;exitX=0.5;exitY=0.5;exitDx=0;exitDy=0;exitPerimeter=0;entryX=0;entryY=0.5;entryDx=0;entryDy=0;strokeColor=#788AA3;fontFamily=Architects Daughter;fontSource=https%3A%2F%2Ffonts.googleapis.com%2Fcss%3Ffamily%3DArchitects%2BDaughter;fontColor=#46495D;fillColor=#B2C9AB;" parent="1" source="15XDuqP0ykz5soVIeBwF-4" target="15XDuqP0ykz5soVIeBwF-47" edge="1">
          <mxGeometry relative="1" as="geometry" />
        </mxCell>
        <mxCell id="15XDuqP0ykz5soVIeBwF-4" value="User" style="shape=umlActor;verticalLabelPosition=bottom;verticalAlign=top;html=1;sketch=1;hachureGap=4;jiggle=2;curveFitting=1;strokeColor=#788AA3;fontFamily=Architects Daughter;fontSource=https%3A%2F%2Ffonts.googleapis.com%2Fcss%3Ffamily%3DArchitects%2BDaughter;fontColor=#46495D;fillColor=#B2C9AB;labelPosition=center;align=center;" parent="1" vertex="1">
          <mxGeometry x="-280" y="230.94" width="30" height="60" as="geometry" />
        </mxCell>
        <mxCell id="15XDuqP0ykz5soVIeBwF-56" style="edgeStyle=orthogonalEdgeStyle;rounded=0;sketch=1;hachureGap=4;jiggle=2;curveFitting=1;orthogonalLoop=1;jettySize=auto;html=1;exitX=1;exitY=0.5;exitDx=0;exitDy=0;entryX=0;entryY=0.5;entryDx=0;entryDy=0;strokeColor=#788AA3;fontFamily=Architects Daughter;fontSource=https%3A%2F%2Ffonts.googleapis.com%2Fcss%3Ffamily%3DArchitects%2BDaughter;fontColor=#46495D;fillColor=#B2C9AB;" parent="1" source="15XDuqP0ykz5soVIeBwF-6" target="15XDuqP0ykz5soVIeBwF-7" edge="1">
          <mxGeometry relative="1" as="geometry" />
        </mxCell>
        <mxCell id="15XDuqP0ykz5soVIeBwF-6" value="Login" style="ellipse;whiteSpace=wrap;html=1;sketch=1;hachureGap=4;jiggle=2;curveFitting=1;strokeColor=#788AA3;fontFamily=Architects Daughter;fontSource=https%3A%2F%2Ffonts.googleapis.com%2Fcss%3Ffamily%3DArchitects%2BDaughter;fontColor=#46495D;fillColor=#B2C9AB;" parent="1" vertex="1">
          <mxGeometry x="-110" y="238.44" width="110" height="45" as="geometry" />
        </mxCell>
        <mxCell id="15XDuqP0ykz5soVIeBwF-57" style="edgeStyle=orthogonalEdgeStyle;rounded=0;sketch=1;hachureGap=4;jiggle=2;curveFitting=1;orthogonalLoop=1;jettySize=auto;html=1;exitX=1;exitY=0.5;exitDx=0;exitDy=0;entryX=0;entryY=0.5;entryDx=0;entryDy=0;strokeColor=#d79b00;fontFamily=Architects Daughter;fontSource=https%3A%2F%2Ffonts.googleapis.com%2Fcss%3Ffamily%3DArchitects%2BDaughter;fontColor=#46495D;fillColor=#ffe6cc;" parent="1" source="15XDuqP0ykz5soVIeBwF-7" target="15XDuqP0ykz5soVIeBwF-8" edge="1">
          <mxGeometry relative="1" as="geometry">
            <Array as="points">
              <mxPoint x="670" y="261" />
              <mxPoint x="670" y="343" />
            </Array>
          </mxGeometry>
        </mxCell>
        <mxCell id="15XDuqP0ykz5soVIeBwF-7" value="Check credentials" style="ellipse;whiteSpace=wrap;html=1;sketch=1;hachureGap=4;jiggle=2;curveFitting=1;strokeColor=#788AA3;fontFamily=Architects Daughter;fontSource=https%3A%2F%2Ffonts.googleapis.com%2Fcss%3Ffamily%3DArchitects%2BDaughter;fontColor=#46495D;fillColor=#B2C9AB;" parent="1" vertex="1">
          <mxGeometry x="337.5" y="237.66" width="125" height="46.56" as="geometry" />
        </mxCell>
        <mxCell id="15XDuqP0ykz5soVIeBwF-8" value="UserData" style="ellipse;whiteSpace=wrap;html=1;sketch=1;hachureGap=4;jiggle=2;curveFitting=1;strokeColor=#d79b00;fontFamily=Architects Daughter;fontSource=https%3A%2F%2Ffonts.googleapis.com%2Fcss%3Ffamily%3DArchitects%2BDaughter;fillColor=#ffe6cc;" parent="1" vertex="1">
          <mxGeometry x="860" y="320" width="120" height="45.93" as="geometry" />
        </mxCell>
        <mxCell id="15XDuqP0ykz5soVIeBwF-65" style="edgeStyle=orthogonalEdgeStyle;rounded=0;sketch=1;hachureGap=4;jiggle=2;curveFitting=1;orthogonalLoop=1;jettySize=auto;html=1;exitX=1;exitY=0.5;exitDx=0;exitDy=0;entryX=0;entryY=0.5;entryDx=0;entryDy=0;strokeColor=#788AA3;fontFamily=Architects Daughter;fontSource=https%3A%2F%2Ffonts.googleapis.com%2Fcss%3Ffamily%3DArchitects%2BDaughter;fontColor=#46495D;fillColor=#B2C9AB;" parent="1" source="15XDuqP0ykz5soVIeBwF-9" target="15XDuqP0ykz5soVIeBwF-10" edge="1">
          <mxGeometry relative="1" as="geometry" />
        </mxCell>
        <mxCell id="15XDuqP0ykz5soVIeBwF-9" value="Open store" style="ellipse;whiteSpace=wrap;html=1;sketch=1;hachureGap=4;jiggle=2;curveFitting=1;strokeColor=#788AA3;fontFamily=Architects Daughter;fontSource=https%3A%2F%2Ffonts.googleapis.com%2Fcss%3Ffamily%3DArchitects%2BDaughter;fontColor=#46495D;fillColor=#B2C9AB;" parent="1" vertex="1">
          <mxGeometry x="-115" y="480" width="120" height="50" as="geometry" />
        </mxCell>
        <mxCell id="15XDuqP0ykz5soVIeBwF-66" style="edgeStyle=orthogonalEdgeStyle;rounded=0;sketch=1;hachureGap=4;jiggle=2;curveFitting=1;orthogonalLoop=1;jettySize=auto;html=1;exitX=1;exitY=0.5;exitDx=0;exitDy=0;entryX=0;entryY=0.5;entryDx=0;entryDy=0;strokeColor=#b85450;fontFamily=Architects Daughter;fontSource=https%3A%2F%2Ffonts.googleapis.com%2Fcss%3Ffamily%3DArchitects%2BDaughter;fontColor=#46495D;fillColor=#f8cecc;" parent="1" source="15XDuqP0ykz5soVIeBwF-10" target="15XDuqP0ykz5soVIeBwF-11" edge="1">
          <mxGeometry relative="1" as="geometry">
            <Array as="points">
              <mxPoint x="760" y="506" />
              <mxPoint x="760" y="623" />
            </Array>
          </mxGeometry>
        </mxCell>
        <mxCell id="15XDuqP0ykz5soVIeBwF-10" value="Get storage data" style="ellipse;whiteSpace=wrap;html=1;sketch=1;hachureGap=4;jiggle=2;curveFitting=1;strokeColor=#788AA3;fontFamily=Architects Daughter;fontSource=https%3A%2F%2Ffonts.googleapis.com%2Fcss%3Ffamily%3DArchitects%2BDaughter;fontColor=#46495D;fillColor=#B2C9AB;" parent="1" vertex="1">
          <mxGeometry x="336.5" y="480" width="132.5" height="51.56" as="geometry" />
        </mxCell>
        <mxCell id="15XDuqP0ykz5soVIeBwF-11" value="StoreData" style="ellipse;whiteSpace=wrap;html=1;sketch=1;hachureGap=4;jiggle=2;curveFitting=1;strokeColor=#b85450;fontFamily=Architects Daughter;fontSource=https%3A%2F%2Ffonts.googleapis.com%2Fcss%3Ffamily%3DArchitects%2BDaughter;fillColor=#f8cecc;" parent="1" vertex="1">
          <mxGeometry x="860" y="600" width="120" height="45.93" as="geometry" />
        </mxCell>
        <mxCell id="15XDuqP0ykz5soVIeBwF-67" style="edgeStyle=orthogonalEdgeStyle;rounded=0;sketch=1;hachureGap=4;jiggle=2;curveFitting=1;orthogonalLoop=1;jettySize=auto;html=1;exitX=1;exitY=0.5;exitDx=0;exitDy=0;entryX=0;entryY=0.5;entryDx=0;entryDy=0;strokeColor=#788AA3;fontFamily=Architects Daughter;fontSource=https%3A%2F%2Ffonts.googleapis.com%2Fcss%3Ffamily%3DArchitects%2BDaughter;fontColor=#46495D;fillColor=#B2C9AB;" parent="1" source="15XDuqP0ykz5soVIeBwF-12" target="15XDuqP0ykz5soVIeBwF-14" edge="1">
          <mxGeometry relative="1" as="geometry" />
        </mxCell>
        <mxCell id="15XDuqP0ykz5soVIeBwF-12" value="Add item to cart" style="ellipse;whiteSpace=wrap;html=1;sketch=1;hachureGap=4;jiggle=2;curveFitting=1;strokeColor=#788AA3;fontFamily=Architects Daughter;fontSource=https%3A%2F%2Ffonts.googleapis.com%2Fcss%3Ffamily%3DArchitects%2BDaughter;fontColor=#46495D;fillColor=#B2C9AB;" parent="1" vertex="1">
          <mxGeometry x="-115" y="561.5599999999998" width="120" height="50" as="geometry" />
        </mxCell>
        <mxCell id="15XDuqP0ykz5soVIeBwF-68" style="edgeStyle=orthogonalEdgeStyle;rounded=0;sketch=1;hachureGap=4;jiggle=2;curveFitting=1;orthogonalLoop=1;jettySize=auto;html=1;exitX=1;exitY=0.5;exitDx=0;exitDy=0;entryX=0;entryY=0.5;entryDx=0;entryDy=0;strokeColor=#788AA3;fontFamily=Architects Daughter;fontSource=https%3A%2F%2Ffonts.googleapis.com%2Fcss%3Ffamily%3DArchitects%2BDaughter;fontColor=#46495D;fillColor=#B2C9AB;" parent="1" source="15XDuqP0ykz5soVIeBwF-13" target="15XDuqP0ykz5soVIeBwF-14" edge="1">
          <mxGeometry relative="1" as="geometry" />
        </mxCell>
        <mxCell id="15XDuqP0ykz5soVIeBwF-13" value="Delete item in cart" style="ellipse;whiteSpace=wrap;html=1;sketch=1;hachureGap=4;jiggle=2;curveFitting=1;strokeColor=#788AA3;fontFamily=Architects Daughter;fontSource=https%3A%2F%2Ffonts.googleapis.com%2Fcss%3Ffamily%3DArchitects%2BDaughter;fontColor=#46495D;fillColor=#B2C9AB;" parent="1" vertex="1">
          <mxGeometry x="-115" y="631.5599999999998" width="120" height="50" as="geometry" />
        </mxCell>
        <mxCell id="15XDuqP0ykz5soVIeBwF-14" value="Cart management" style="ellipse;whiteSpace=wrap;html=1;sketch=1;hachureGap=4;jiggle=2;curveFitting=1;strokeColor=#788AA3;fontFamily=Architects Daughter;fontSource=https%3A%2F%2Ffonts.googleapis.com%2Fcss%3Ffamily%3DArchitects%2BDaughter;fontColor=#46495D;fillColor=#B2C9AB;" parent="1" vertex="1">
          <mxGeometry x="336.5" y="591.56" width="132.5" height="51.56" as="geometry" />
        </mxCell>
        <mxCell id="15XDuqP0ykz5soVIeBwF-69" style="edgeStyle=orthogonalEdgeStyle;rounded=0;sketch=1;hachureGap=4;jiggle=2;curveFitting=1;orthogonalLoop=1;jettySize=auto;html=1;exitX=1;exitY=0.5;exitDx=0;exitDy=0;entryX=1;entryY=1;entryDx=0;entryDy=0;strokeColor=#788AA3;fontFamily=Architects Daughter;fontSource=https%3A%2F%2Ffonts.googleapis.com%2Fcss%3Ffamily%3DArchitects%2BDaughter;fontColor=#46495D;fillColor=#B2C9AB;" parent="1" source="15XDuqP0ykz5soVIeBwF-15" target="15XDuqP0ykz5soVIeBwF-6" edge="1">
          <mxGeometry relative="1" as="geometry">
            <Array as="points">
              <mxPoint x="25" y="752" />
              <mxPoint x="25" y="310" />
              <mxPoint x="-16" y="310" />
            </Array>
          </mxGeometry>
        </mxCell>
        <mxCell id="15XDuqP0ykz5soVIeBwF-70" style="edgeStyle=orthogonalEdgeStyle;rounded=0;sketch=1;hachureGap=4;jiggle=2;curveFitting=1;orthogonalLoop=1;jettySize=auto;html=1;exitX=1;exitY=0.5;exitDx=0;exitDy=0;entryX=0;entryY=0.5;entryDx=0;entryDy=0;strokeColor=#788AA3;fontFamily=Architects Daughter;fontSource=https%3A%2F%2Ffonts.googleapis.com%2Fcss%3Ffamily%3DArchitects%2BDaughter;fontColor=#46495D;fillColor=#B2C9AB;" parent="1" source="15XDuqP0ykz5soVIeBwF-15" target="15XDuqP0ykz5soVIeBwF-16" edge="1">
          <mxGeometry relative="1" as="geometry" />
        </mxCell>
        <mxCell id="15XDuqP0ykz5soVIeBwF-72" style="edgeStyle=orthogonalEdgeStyle;rounded=0;sketch=1;hachureGap=4;jiggle=2;curveFitting=1;orthogonalLoop=1;jettySize=auto;html=1;exitX=1;exitY=0.5;exitDx=0;exitDy=0;entryX=0;entryY=0.5;entryDx=0;entryDy=0;strokeColor=#788AA3;fontFamily=Architects Daughter;fontSource=https%3A%2F%2Ffonts.googleapis.com%2Fcss%3Ffamily%3DArchitects%2BDaughter;fontColor=#46495D;fillColor=#B2C9AB;" parent="1" source="15XDuqP0ykz5soVIeBwF-15" target="15XDuqP0ykz5soVIeBwF-17" edge="1">
          <mxGeometry relative="1" as="geometry" />
        </mxCell>
        <mxCell id="15XDuqP0ykz5soVIeBwF-15" value="Make payment" style="ellipse;whiteSpace=wrap;html=1;sketch=1;hachureGap=4;jiggle=2;curveFitting=1;strokeColor=#788AA3;fontFamily=Architects Daughter;fontSource=https%3A%2F%2Ffonts.googleapis.com%2Fcss%3Ffamily%3DArchitects%2BDaughter;fontColor=#46495D;fillColor=#B2C9AB;" parent="1" vertex="1">
          <mxGeometry x="-115" y="726.5599999999998" width="120" height="50" as="geometry" />
        </mxCell>
        <mxCell id="15XDuqP0ykz5soVIeBwF-71" style="edgeStyle=orthogonalEdgeStyle;rounded=0;sketch=1;hachureGap=4;jiggle=2;curveFitting=1;orthogonalLoop=1;jettySize=auto;html=1;exitX=1;exitY=0.5;exitDx=0;exitDy=0;entryX=0;entryY=0.5;entryDx=0;entryDy=0;strokeColor=#d79b00;fontFamily=Architects Daughter;fontSource=https%3A%2F%2Ffonts.googleapis.com%2Fcss%3Ffamily%3DArchitects%2BDaughter;fontColor=#46495D;fillColor=#ffe6cc;" parent="1" source="15XDuqP0ykz5soVIeBwF-16" target="15XDuqP0ykz5soVIeBwF-8" edge="1">
          <mxGeometry relative="1" as="geometry">
            <Array as="points">
              <mxPoint x="670" y="752" />
              <mxPoint x="670" y="343" />
            </Array>
          </mxGeometry>
        </mxCell>
        <mxCell id="15XDuqP0ykz5soVIeBwF-16" value="Check for last payment information" style="ellipse;whiteSpace=wrap;html=1;sketch=1;hachureGap=4;jiggle=2;curveFitting=1;strokeColor=#788AA3;fontFamily=Architects Daughter;fontSource=https%3A%2F%2Ffonts.googleapis.com%2Fcss%3Ffamily%3DArchitects%2BDaughter;fontColor=#46495D;fillColor=#B2C9AB;" parent="1" vertex="1">
          <mxGeometry x="328" y="721.56" width="170" height="60" as="geometry" />
        </mxCell>
        <mxCell id="15XDuqP0ykz5soVIeBwF-74" style="edgeStyle=orthogonalEdgeStyle;rounded=0;sketch=1;hachureGap=4;jiggle=2;curveFitting=1;orthogonalLoop=1;jettySize=auto;html=1;exitX=0.5;exitY=1;exitDx=0;exitDy=0;entryX=0.5;entryY=0;entryDx=0;entryDy=0;strokeColor=#788AA3;fontFamily=Architects Daughter;fontSource=https%3A%2F%2Ffonts.googleapis.com%2Fcss%3Ffamily%3DArchitects%2BDaughter;fontColor=#46495D;fillColor=#B2C9AB;" parent="1" source="15XDuqP0ykz5soVIeBwF-17" target="15XDuqP0ykz5soVIeBwF-18" edge="1">
          <mxGeometry relative="1" as="geometry" />
        </mxCell>
        <mxCell id="15XDuqP0ykz5soVIeBwF-17" value="Make payment" style="ellipse;whiteSpace=wrap;html=1;sketch=1;hachureGap=4;jiggle=2;curveFitting=1;strokeColor=#788AA3;fontFamily=Architects Daughter;fontSource=https%3A%2F%2Ffonts.googleapis.com%2Fcss%3Ffamily%3DArchitects%2BDaughter;fontColor=#46495D;fillColor=#B2C9AB;" parent="1" vertex="1">
          <mxGeometry x="337.5" y="811.56" width="151" height="50" as="geometry" />
        </mxCell>
        <mxCell id="15XDuqP0ykz5soVIeBwF-73" style="edgeStyle=orthogonalEdgeStyle;rounded=0;sketch=1;hachureGap=4;jiggle=2;curveFitting=1;orthogonalLoop=1;jettySize=auto;html=1;exitX=1;exitY=0.5;exitDx=0;exitDy=0;entryX=0;entryY=0.5;entryDx=0;entryDy=0;strokeColor=#b85450;fontFamily=Architects Daughter;fontSource=https%3A%2F%2Ffonts.googleapis.com%2Fcss%3Ffamily%3DArchitects%2BDaughter;fontColor=#46495D;fillColor=#f8cecc;" parent="1" source="15XDuqP0ykz5soVIeBwF-18" target="15XDuqP0ykz5soVIeBwF-11" edge="1">
          <mxGeometry relative="1" as="geometry">
            <Array as="points">
              <mxPoint x="760" y="917" />
              <mxPoint x="760" y="623" />
            </Array>
          </mxGeometry>
        </mxCell>
        <mxCell id="15XDuqP0ykz5soVIeBwF-18" value="Update storage data" style="ellipse;whiteSpace=wrap;html=1;sketch=1;hachureGap=4;jiggle=2;curveFitting=1;strokeColor=#788AA3;fontFamily=Architects Daughter;fontSource=https%3A%2F%2Ffonts.googleapis.com%2Fcss%3Ffamily%3DArchitects%2BDaughter;fontColor=#46495D;fillColor=#B2C9AB;" parent="1" vertex="1">
          <mxGeometry x="332.5" y="891.56" width="161" height="50" as="geometry" />
        </mxCell>
        <mxCell id="15XDuqP0ykz5soVIeBwF-59" style="edgeStyle=orthogonalEdgeStyle;rounded=0;sketch=1;hachureGap=4;jiggle=2;curveFitting=1;orthogonalLoop=1;jettySize=auto;html=1;exitX=1;exitY=0.5;exitDx=0;exitDy=0;entryX=0;entryY=0.5;entryDx=0;entryDy=0;strokeColor=#788AA3;fontFamily=Architects Daughter;fontSource=https%3A%2F%2Ffonts.googleapis.com%2Fcss%3Ffamily%3DArchitects%2BDaughter;fontColor=#46495D;fillColor=#B2C9AB;" parent="1" source="15XDuqP0ykz5soVIeBwF-19" target="15XDuqP0ykz5soVIeBwF-20" edge="1">
          <mxGeometry relative="1" as="geometry" />
        </mxCell>
        <mxCell id="15XDuqP0ykz5soVIeBwF-19" value="Access Profile" style="ellipse;whiteSpace=wrap;html=1;sketch=1;hachureGap=4;jiggle=2;curveFitting=1;strokeColor=#788AA3;fontFamily=Architects Daughter;fontSource=https%3A%2F%2Ffonts.googleapis.com%2Fcss%3Ffamily%3DArchitects%2BDaughter;fontColor=#46495D;fillColor=#B2C9AB;" parent="1" vertex="1">
          <mxGeometry x="-120" y="320" width="120" height="50" as="geometry" />
        </mxCell>
        <mxCell id="15XDuqP0ykz5soVIeBwF-60" style="edgeStyle=orthogonalEdgeStyle;rounded=0;sketch=1;hachureGap=4;jiggle=2;curveFitting=1;orthogonalLoop=1;jettySize=auto;html=1;exitX=1;exitY=0.5;exitDx=0;exitDy=0;entryX=0;entryY=0.5;entryDx=0;entryDy=0;strokeColor=#d79b00;fontFamily=Architects Daughter;fontSource=https%3A%2F%2Ffonts.googleapis.com%2Fcss%3Ffamily%3DArchitects%2BDaughter;fontColor=#46495D;fillColor=#ffe6cc;" parent="1" source="15XDuqP0ykz5soVIeBwF-20" target="15XDuqP0ykz5soVIeBwF-8" edge="1">
          <mxGeometry relative="1" as="geometry" />
        </mxCell>
        <mxCell id="15XDuqP0ykz5soVIeBwF-20" value="Get Profile Data" style="ellipse;whiteSpace=wrap;html=1;sketch=1;hachureGap=4;jiggle=2;curveFitting=1;strokeColor=#788AA3;fontFamily=Architects Daughter;fontSource=https%3A%2F%2Ffonts.googleapis.com%2Fcss%3Ffamily%3DArchitects%2BDaughter;fontColor=#46495D;fillColor=#B2C9AB;" parent="1" vertex="1">
          <mxGeometry x="319.5" y="320" width="161" height="50" as="geometry" />
        </mxCell>
        <mxCell id="15XDuqP0ykz5soVIeBwF-62" style="edgeStyle=orthogonalEdgeStyle;rounded=0;sketch=1;hachureGap=4;jiggle=2;curveFitting=1;orthogonalLoop=1;jettySize=auto;html=1;exitX=1;exitY=0.5;exitDx=0;exitDy=0;entryX=0;entryY=0.5;entryDx=0;entryDy=0;strokeColor=#788AA3;fontFamily=Architects Daughter;fontSource=https%3A%2F%2Ffonts.googleapis.com%2Fcss%3Ffamily%3DArchitects%2BDaughter;fontColor=#46495D;fillColor=#B2C9AB;" parent="1" source="15XDuqP0ykz5soVIeBwF-21" target="15XDuqP0ykz5soVIeBwF-22" edge="1">
          <mxGeometry relative="1" as="geometry" />
        </mxCell>
        <mxCell id="15XDuqP0ykz5soVIeBwF-21" value="Modify Profile" style="ellipse;whiteSpace=wrap;html=1;sketch=1;hachureGap=4;jiggle=2;curveFitting=1;strokeColor=#788AA3;fontFamily=Architects Daughter;fontSource=https%3A%2F%2Ffonts.googleapis.com%2Fcss%3Ffamily%3DArchitects%2BDaughter;fontColor=#46495D;fillColor=#B2C9AB;" parent="1" vertex="1">
          <mxGeometry x="-120" y="400" width="120" height="50" as="geometry" />
        </mxCell>
        <mxCell id="15XDuqP0ykz5soVIeBwF-63" style="edgeStyle=orthogonalEdgeStyle;rounded=0;sketch=1;hachureGap=4;jiggle=2;curveFitting=1;orthogonalLoop=1;jettySize=auto;html=1;exitX=1;exitY=0.5;exitDx=0;exitDy=0;entryX=0;entryY=0.5;entryDx=0;entryDy=0;strokeColor=#d79b00;fontFamily=Architects Daughter;fontSource=https%3A%2F%2Ffonts.googleapis.com%2Fcss%3Ffamily%3DArchitects%2BDaughter;fontColor=#46495D;fillColor=#ffe6cc;" parent="1" source="15XDuqP0ykz5soVIeBwF-22" target="15XDuqP0ykz5soVIeBwF-8" edge="1">
          <mxGeometry relative="1" as="geometry" />
        </mxCell>
        <mxCell id="15XDuqP0ykz5soVIeBwF-22" value="Update Profile Data" style="ellipse;whiteSpace=wrap;html=1;sketch=1;hachureGap=4;jiggle=2;curveFitting=1;strokeColor=#788AA3;fontFamily=Architects Daughter;fontSource=https%3A%2F%2Ffonts.googleapis.com%2Fcss%3Ffamily%3DArchitects%2BDaughter;fontColor=#46495D;fillColor=#B2C9AB;" parent="1" vertex="1">
          <mxGeometry x="319.5" y="400" width="161" height="50" as="geometry" />
        </mxCell>
        <mxCell id="15XDuqP0ykz5soVIeBwF-75" style="edgeStyle=orthogonalEdgeStyle;rounded=0;sketch=1;hachureGap=4;jiggle=2;curveFitting=1;orthogonalLoop=1;jettySize=auto;html=1;exitX=1;exitY=0.5;exitDx=0;exitDy=0;entryX=0;entryY=0.5;entryDx=0;entryDy=0;strokeColor=#788AA3;fontFamily=Architects Daughter;fontSource=https%3A%2F%2Ffonts.googleapis.com%2Fcss%3Ffamily%3DArchitects%2BDaughter;fontColor=#46495D;fillColor=#B2C9AB;" parent="1" source="15XDuqP0ykz5soVIeBwF-23" target="15XDuqP0ykz5soVIeBwF-24" edge="1">
          <mxGeometry relative="1" as="geometry" />
        </mxCell>
        <mxCell id="15XDuqP0ykz5soVIeBwF-23" value="Search Player" style="ellipse;whiteSpace=wrap;html=1;sketch=1;hachureGap=4;jiggle=2;curveFitting=1;strokeColor=#788AA3;fontFamily=Architects Daughter;fontSource=https%3A%2F%2Ffonts.googleapis.com%2Fcss%3Ffamily%3DArchitects%2BDaughter;fontColor=#46495D;fillColor=#B2C9AB;" parent="1" vertex="1">
          <mxGeometry x="-120" y="989.9999999999998" width="120" height="50" as="geometry" />
        </mxCell>
        <mxCell id="15XDuqP0ykz5soVIeBwF-76" style="edgeStyle=orthogonalEdgeStyle;rounded=0;sketch=1;hachureGap=4;jiggle=2;curveFitting=1;orthogonalLoop=1;jettySize=auto;html=1;exitX=1;exitY=0.5;exitDx=0;exitDy=0;entryX=0;entryY=0.5;entryDx=0;entryDy=0;strokeColor=#9673a6;fontFamily=Architects Daughter;fontSource=https%3A%2F%2Ffonts.googleapis.com%2Fcss%3Ffamily%3DArchitects%2BDaughter;fontColor=#46495D;fillColor=#e1d5e7;" parent="1" source="15XDuqP0ykz5soVIeBwF-24" target="15XDuqP0ykz5soVIeBwF-29" edge="1">
          <mxGeometry relative="1" as="geometry">
            <Array as="points">
              <mxPoint x="700" y="1015" />
              <mxPoint x="700" y="1063" />
            </Array>
          </mxGeometry>
        </mxCell>
        <mxCell id="15XDuqP0ykz5soVIeBwF-24" value="Show Player Data" style="ellipse;whiteSpace=wrap;html=1;sketch=1;hachureGap=4;jiggle=2;curveFitting=1;strokeColor=#788AA3;fontFamily=Architects Daughter;fontSource=https%3A%2F%2Ffonts.googleapis.com%2Fcss%3Ffamily%3DArchitects%2BDaughter;fontColor=#46495D;fillColor=#B2C9AB;" parent="1" vertex="1">
          <mxGeometry x="332.5" y="990" width="161" height="50" as="geometry" />
        </mxCell>
        <mxCell id="15XDuqP0ykz5soVIeBwF-78" style="edgeStyle=orthogonalEdgeStyle;rounded=0;sketch=1;hachureGap=4;jiggle=2;curveFitting=1;orthogonalLoop=1;jettySize=auto;html=1;exitX=1;exitY=0.5;exitDx=0;exitDy=0;entryX=0;entryY=0.5;entryDx=0;entryDy=0;strokeColor=#9673a6;fontFamily=Architects Daughter;fontSource=https%3A%2F%2Ffonts.googleapis.com%2Fcss%3Ffamily%3DArchitects%2BDaughter;fontColor=#46495D;fillColor=#e1d5e7;" parent="1" source="15XDuqP0ykz5soVIeBwF-25" target="15XDuqP0ykz5soVIeBwF-29" edge="1">
          <mxGeometry relative="1" as="geometry">
            <Array as="points">
              <mxPoint x="700" y="1095" />
              <mxPoint x="700" y="1063" />
            </Array>
          </mxGeometry>
        </mxCell>
        <mxCell id="15XDuqP0ykz5soVIeBwF-25" value="Updated Player Data" style="ellipse;whiteSpace=wrap;html=1;sketch=1;hachureGap=4;jiggle=2;curveFitting=1;strokeColor=#788AA3;fontFamily=Architects Daughter;fontSource=https%3A%2F%2Ffonts.googleapis.com%2Fcss%3Ffamily%3DArchitects%2BDaughter;fontColor=#46495D;fillColor=#B2C9AB;" parent="1" vertex="1">
          <mxGeometry x="332.5" y="1070" width="161" height="50" as="geometry" />
        </mxCell>
        <mxCell id="15XDuqP0ykz5soVIeBwF-79" style="edgeStyle=orthogonalEdgeStyle;rounded=0;sketch=1;hachureGap=4;jiggle=2;curveFitting=1;orthogonalLoop=1;jettySize=auto;html=1;exitX=1;exitY=0.5;exitDx=0;exitDy=0;entryX=0;entryY=0.5;entryDx=0;entryDy=0;strokeColor=#788AA3;fontFamily=Architects Daughter;fontSource=https%3A%2F%2Ffonts.googleapis.com%2Fcss%3Ffamily%3DArchitects%2BDaughter;fontColor=#46495D;fillColor=#B2C9AB;" parent="1" source="15XDuqP0ykz5soVIeBwF-26" target="15XDuqP0ykz5soVIeBwF-27" edge="1">
          <mxGeometry relative="1" as="geometry" />
        </mxCell>
        <mxCell id="15XDuqP0ykz5soVIeBwF-26" value="Search Team" style="ellipse;whiteSpace=wrap;html=1;sketch=1;hachureGap=4;jiggle=2;curveFitting=1;strokeColor=#788AA3;fontFamily=Architects Daughter;fontSource=https%3A%2F%2Ffonts.googleapis.com%2Fcss%3Ffamily%3DArchitects%2BDaughter;fontColor=#46495D;fillColor=#B2C9AB;" parent="1" vertex="1">
          <mxGeometry x="-120" y="1168.9999999999998" width="120" height="50" as="geometry" />
        </mxCell>
        <mxCell id="15XDuqP0ykz5soVIeBwF-80" style="edgeStyle=orthogonalEdgeStyle;rounded=0;sketch=1;hachureGap=4;jiggle=2;curveFitting=1;orthogonalLoop=1;jettySize=auto;html=1;exitX=1;exitY=0.5;exitDx=0;exitDy=0;entryX=0;entryY=0.5;entryDx=0;entryDy=0;strokeColor=#ae4132;fontFamily=Architects Daughter;fontSource=https%3A%2F%2Ffonts.googleapis.com%2Fcss%3Ffamily%3DArchitects%2BDaughter;fontColor=#46495D;fillColor=#fad9d5;" parent="1" source="15XDuqP0ykz5soVIeBwF-27" target="15XDuqP0ykz5soVIeBwF-30" edge="1">
          <mxGeometry relative="1" as="geometry">
            <Array as="points">
              <mxPoint x="740" y="1194" />
              <mxPoint x="740" y="1242" />
            </Array>
          </mxGeometry>
        </mxCell>
        <mxCell id="15XDuqP0ykz5soVIeBwF-27" value="Show Team Data" style="ellipse;whiteSpace=wrap;html=1;sketch=1;hachureGap=4;jiggle=2;curveFitting=1;strokeColor=#788AA3;fontFamily=Architects Daughter;fontSource=https%3A%2F%2Ffonts.googleapis.com%2Fcss%3Ffamily%3DArchitects%2BDaughter;fontColor=#46495D;fillColor=#B2C9AB;" parent="1" vertex="1">
          <mxGeometry x="333" y="1169" width="161" height="50" as="geometry" />
        </mxCell>
        <mxCell id="15XDuqP0ykz5soVIeBwF-81" style="edgeStyle=orthogonalEdgeStyle;rounded=0;sketch=1;hachureGap=4;jiggle=2;curveFitting=1;orthogonalLoop=1;jettySize=auto;html=1;exitX=1;exitY=0.5;exitDx=0;exitDy=0;entryX=0;entryY=0.5;entryDx=0;entryDy=0;strokeColor=#ae4132;fontFamily=Architects Daughter;fontSource=https%3A%2F%2Ffonts.googleapis.com%2Fcss%3Ffamily%3DArchitects%2BDaughter;fontColor=#46495D;fillColor=#fad9d5;" parent="1" source="15XDuqP0ykz5soVIeBwF-28" target="15XDuqP0ykz5soVIeBwF-30" edge="1">
          <mxGeometry relative="1" as="geometry">
            <Array as="points">
              <mxPoint x="740" y="1274" />
              <mxPoint x="740" y="1242" />
            </Array>
          </mxGeometry>
        </mxCell>
        <mxCell id="15XDuqP0ykz5soVIeBwF-28" value="Updated Team Data" style="ellipse;whiteSpace=wrap;html=1;sketch=1;hachureGap=4;jiggle=2;curveFitting=1;strokeColor=#788AA3;fontFamily=Architects Daughter;fontSource=https%3A%2F%2Ffonts.googleapis.com%2Fcss%3Ffamily%3DArchitects%2BDaughter;fontColor=#46495D;fillColor=#B2C9AB;" parent="1" vertex="1">
          <mxGeometry x="333" y="1249" width="161" height="50" as="geometry" />
        </mxCell>
        <mxCell id="15XDuqP0ykz5soVIeBwF-29" value="PlayersData" style="ellipse;whiteSpace=wrap;html=1;sketch=1;hachureGap=4;jiggle=2;curveFitting=1;strokeColor=#9673a6;fontFamily=Architects Daughter;fontSource=https%3A%2F%2Ffonts.googleapis.com%2Fcss%3Ffamily%3DArchitects%2BDaughter;fillColor=#e1d5e7;" parent="1" vertex="1">
          <mxGeometry x="860" y="1040" width="120" height="45.93" as="geometry" />
        </mxCell>
        <mxCell id="15XDuqP0ykz5soVIeBwF-30" value="TeamsData" style="ellipse;whiteSpace=wrap;html=1;sketch=1;hachureGap=4;jiggle=2;curveFitting=1;strokeColor=#ae4132;fontFamily=Architects Daughter;fontSource=https%3A%2F%2Ffonts.googleapis.com%2Fcss%3Ffamily%3DArchitects%2BDaughter;fillColor=#fad9d5;" parent="1" vertex="1">
          <mxGeometry x="860" y="1219" width="120" height="45.93" as="geometry" />
        </mxCell>
        <mxCell id="15XDuqP0ykz5soVIeBwF-92" style="edgeStyle=orthogonalEdgeStyle;rounded=0;sketch=1;hachureGap=4;jiggle=2;curveFitting=1;orthogonalLoop=1;jettySize=auto;html=1;exitX=1;exitY=0.5;exitDx=0;exitDy=0;entryX=0;entryY=0.5;entryDx=0;entryDy=0;strokeColor=#788AA3;fontFamily=Architects Daughter;fontSource=https%3A%2F%2Ffonts.googleapis.com%2Fcss%3Ffamily%3DArchitects%2BDaughter;fontColor=#46495D;fillColor=#B2C9AB;" parent="1" source="15XDuqP0ykz5soVIeBwF-31" target="15XDuqP0ykz5soVIeBwF-32" edge="1">
          <mxGeometry relative="1" as="geometry" />
        </mxCell>
        <mxCell id="15XDuqP0ykz5soVIeBwF-31" value="Search Stadium" style="ellipse;whiteSpace=wrap;html=1;sketch=1;hachureGap=4;jiggle=2;curveFitting=1;strokeColor=#788AA3;fontFamily=Architects Daughter;fontSource=https%3A%2F%2Ffonts.googleapis.com%2Fcss%3Ffamily%3DArchitects%2BDaughter;fontColor=#46495D;fillColor=#B2C9AB;" parent="1" vertex="1">
          <mxGeometry x="-120" y="1349.9999999999998" width="120" height="50" as="geometry" />
        </mxCell>
        <mxCell id="15XDuqP0ykz5soVIeBwF-94" style="edgeStyle=orthogonalEdgeStyle;rounded=0;sketch=1;hachureGap=4;jiggle=2;curveFitting=1;orthogonalLoop=1;jettySize=auto;html=1;exitX=1;exitY=0.5;exitDx=0;exitDy=0;entryX=0;entryY=0.5;entryDx=0;entryDy=0;strokeColor=#0e8088;fontFamily=Architects Daughter;fontSource=https%3A%2F%2Ffonts.googleapis.com%2Fcss%3Ffamily%3DArchitects%2BDaughter;fontColor=#46495D;fillColor=#b0e3e6;" parent="1" source="15XDuqP0ykz5soVIeBwF-32" target="15XDuqP0ykz5soVIeBwF-34" edge="1">
          <mxGeometry relative="1" as="geometry">
            <Array as="points">
              <mxPoint x="770" y="1375" />
              <mxPoint x="770" y="1423" />
            </Array>
          </mxGeometry>
        </mxCell>
        <mxCell id="15XDuqP0ykz5soVIeBwF-32" value="Show Stadium Data" style="ellipse;whiteSpace=wrap;html=1;sketch=1;hachureGap=4;jiggle=2;curveFitting=1;strokeColor=#788AA3;fontFamily=Architects Daughter;fontSource=https%3A%2F%2Ffonts.googleapis.com%2Fcss%3Ffamily%3DArchitects%2BDaughter;fontColor=#46495D;fillColor=#B2C9AB;" parent="1" vertex="1">
          <mxGeometry x="333" y="1350" width="161" height="50" as="geometry" />
        </mxCell>
        <mxCell id="15XDuqP0ykz5soVIeBwF-96" style="edgeStyle=orthogonalEdgeStyle;rounded=0;sketch=1;hachureGap=4;jiggle=2;curveFitting=1;orthogonalLoop=1;jettySize=auto;html=1;exitX=1;exitY=0.5;exitDx=0;exitDy=0;entryX=0;entryY=0.5;entryDx=0;entryDy=0;strokeColor=#0e8088;fontFamily=Architects Daughter;fontSource=https%3A%2F%2Ffonts.googleapis.com%2Fcss%3Ffamily%3DArchitects%2BDaughter;fontColor=#46495D;fillColor=#b0e3e6;" parent="1" source="15XDuqP0ykz5soVIeBwF-33" target="15XDuqP0ykz5soVIeBwF-34" edge="1">
          <mxGeometry relative="1" as="geometry">
            <Array as="points">
              <mxPoint x="770" y="1455" />
              <mxPoint x="770" y="1423" />
            </Array>
          </mxGeometry>
        </mxCell>
        <mxCell id="15XDuqP0ykz5soVIeBwF-33" value="Updated Stadium Data" style="ellipse;whiteSpace=wrap;html=1;sketch=1;hachureGap=4;jiggle=2;curveFitting=1;strokeColor=#788AA3;fontFamily=Architects Daughter;fontSource=https%3A%2F%2Ffonts.googleapis.com%2Fcss%3Ffamily%3DArchitects%2BDaughter;fontColor=#46495D;fillColor=#B2C9AB;" parent="1" vertex="1">
          <mxGeometry x="333" y="1430" width="161" height="50" as="geometry" />
        </mxCell>
        <mxCell id="15XDuqP0ykz5soVIeBwF-34" value="StadiumData" style="ellipse;whiteSpace=wrap;html=1;sketch=1;hachureGap=4;jiggle=2;curveFitting=1;strokeColor=#0e8088;fontFamily=Architects Daughter;fontSource=https%3A%2F%2Ffonts.googleapis.com%2Fcss%3Ffamily%3DArchitects%2BDaughter;fillColor=#b0e3e6;" parent="1" vertex="1">
          <mxGeometry x="860" y="1400" width="120" height="45.93" as="geometry" />
        </mxCell>
        <mxCell id="15XDuqP0ykz5soVIeBwF-97" style="edgeStyle=orthogonalEdgeStyle;rounded=0;sketch=1;hachureGap=4;jiggle=2;curveFitting=1;orthogonalLoop=1;jettySize=auto;html=1;exitX=1;exitY=0.5;exitDx=0;exitDy=0;entryX=0;entryY=0.5;entryDx=0;entryDy=0;strokeColor=#788AA3;fontFamily=Architects Daughter;fontSource=https%3A%2F%2Ffonts.googleapis.com%2Fcss%3Ffamily%3DArchitects%2BDaughter;fontColor=#46495D;fillColor=#B2C9AB;" parent="1" source="15XDuqP0ykz5soVIeBwF-35" target="15XDuqP0ykz5soVIeBwF-36" edge="1">
          <mxGeometry relative="1" as="geometry" />
        </mxCell>
        <mxCell id="15XDuqP0ykz5soVIeBwF-35" value="Open Leaderboard" style="ellipse;whiteSpace=wrap;html=1;sketch=1;hachureGap=4;jiggle=2;curveFitting=1;strokeColor=#788AA3;fontFamily=Architects Daughter;fontSource=https%3A%2F%2Ffonts.googleapis.com%2Fcss%3Ffamily%3DArchitects%2BDaughter;fontColor=#46495D;fillColor=#B2C9AB;" parent="1" vertex="1">
          <mxGeometry x="-120" y="1519.9999999999998" width="120" height="50" as="geometry" />
        </mxCell>
        <mxCell id="15XDuqP0ykz5soVIeBwF-98" style="edgeStyle=orthogonalEdgeStyle;rounded=0;sketch=1;hachureGap=4;jiggle=2;curveFitting=1;orthogonalLoop=1;jettySize=auto;html=1;exitX=1;exitY=0.5;exitDx=0;exitDy=0;entryX=0;entryY=0.5;entryDx=0;entryDy=0;strokeColor=#C73500;fontFamily=Architects Daughter;fontSource=https%3A%2F%2Ffonts.googleapis.com%2Fcss%3Ffamily%3DArchitects%2BDaughter;fontColor=#46495D;fillColor=#fa6800;" parent="1" source="15XDuqP0ykz5soVIeBwF-36" target="15XDuqP0ykz5soVIeBwF-38" edge="1">
          <mxGeometry relative="1" as="geometry">
            <Array as="points">
              <mxPoint x="800" y="1545" />
              <mxPoint x="800" y="1593" />
            </Array>
          </mxGeometry>
        </mxCell>
        <mxCell id="15XDuqP0ykz5soVIeBwF-36" value="Show Leaderboard Data" style="ellipse;whiteSpace=wrap;html=1;sketch=1;hachureGap=4;jiggle=2;curveFitting=1;strokeColor=#788AA3;fontFamily=Architects Daughter;fontSource=https%3A%2F%2Ffonts.googleapis.com%2Fcss%3Ffamily%3DArchitects%2BDaughter;fontColor=#46495D;fillColor=#B2C9AB;" parent="1" vertex="1">
          <mxGeometry x="333" y="1520" width="161" height="50" as="geometry" />
        </mxCell>
        <mxCell id="15XDuqP0ykz5soVIeBwF-99" style="edgeStyle=orthogonalEdgeStyle;rounded=0;sketch=1;hachureGap=4;jiggle=2;curveFitting=1;orthogonalLoop=1;jettySize=auto;html=1;exitX=1;exitY=0.5;exitDx=0;exitDy=0;entryX=0;entryY=0.5;entryDx=0;entryDy=0;strokeColor=#C73500;fontFamily=Architects Daughter;fontSource=https%3A%2F%2Ffonts.googleapis.com%2Fcss%3Ffamily%3DArchitects%2BDaughter;fontColor=#46495D;fillColor=#fa6800;" parent="1" source="15XDuqP0ykz5soVIeBwF-37" target="15XDuqP0ykz5soVIeBwF-38" edge="1">
          <mxGeometry relative="1" as="geometry">
            <Array as="points">
              <mxPoint x="800" y="1625" />
              <mxPoint x="800" y="1593" />
            </Array>
          </mxGeometry>
        </mxCell>
        <mxCell id="15XDuqP0ykz5soVIeBwF-37" value="Updated Leaderboard Data" style="ellipse;whiteSpace=wrap;html=1;sketch=1;hachureGap=4;jiggle=2;curveFitting=1;strokeColor=#788AA3;fontFamily=Architects Daughter;fontSource=https%3A%2F%2Ffonts.googleapis.com%2Fcss%3Ffamily%3DArchitects%2BDaughter;fontColor=#46495D;fillColor=#B2C9AB;" parent="1" vertex="1">
          <mxGeometry x="333" y="1600" width="161" height="50" as="geometry" />
        </mxCell>
        <mxCell id="15XDuqP0ykz5soVIeBwF-38" value="LeaderboardData" style="ellipse;whiteSpace=wrap;html=1;sketch=1;hachureGap=4;jiggle=2;curveFitting=1;strokeColor=#C73500;fontFamily=Architects Daughter;fontSource=https%3A%2F%2Ffonts.googleapis.com%2Fcss%3Ffamily%3DArchitects%2BDaughter;fontColor=#000000;fillColor=#fa6800;" parent="1" vertex="1">
          <mxGeometry x="860" y="1570" width="120" height="45.93" as="geometry" />
        </mxCell>
        <mxCell id="15XDuqP0ykz5soVIeBwF-100" style="edgeStyle=orthogonalEdgeStyle;rounded=0;sketch=1;hachureGap=4;jiggle=2;curveFitting=1;orthogonalLoop=1;jettySize=auto;html=1;exitX=1;exitY=0.5;exitDx=0;exitDy=0;entryX=0;entryY=0.5;entryDx=0;entryDy=0;strokeColor=#788AA3;fontFamily=Architects Daughter;fontSource=https%3A%2F%2Ffonts.googleapis.com%2Fcss%3Ffamily%3DArchitects%2BDaughter;fontColor=#46495D;fillColor=#B2C9AB;" parent="1" source="15XDuqP0ykz5soVIeBwF-39" target="15XDuqP0ykz5soVIeBwF-40" edge="1">
          <mxGeometry relative="1" as="geometry" />
        </mxCell>
        <mxCell id="15XDuqP0ykz5soVIeBwF-39" value="Open News" style="ellipse;whiteSpace=wrap;html=1;sketch=1;hachureGap=4;jiggle=2;curveFitting=1;strokeColor=#788AA3;fontFamily=Architects Daughter;fontSource=https%3A%2F%2Ffonts.googleapis.com%2Fcss%3Ffamily%3DArchitects%2BDaughter;fontColor=#46495D;fillColor=#B2C9AB;" parent="1" vertex="1">
          <mxGeometry x="-115" y="1709.9999999999998" width="120" height="50" as="geometry" />
        </mxCell>
        <mxCell id="15XDuqP0ykz5soVIeBwF-40" value="Show recent news" style="ellipse;whiteSpace=wrap;html=1;sketch=1;hachureGap=4;jiggle=2;curveFitting=1;strokeColor=#788AA3;fontFamily=Architects Daughter;fontSource=https%3A%2F%2Ffonts.googleapis.com%2Fcss%3Ffamily%3DArchitects%2BDaughter;fontColor=#46495D;fillColor=#B2C9AB;" parent="1" vertex="1">
          <mxGeometry x="322.25" y="1710" width="161" height="50" as="geometry" />
        </mxCell>
        <mxCell id="15XDuqP0ykz5soVIeBwF-41" value="Updated news" style="ellipse;whiteSpace=wrap;html=1;sketch=1;hachureGap=4;jiggle=2;curveFitting=1;strokeColor=#788AA3;fontFamily=Architects Daughter;fontSource=https%3A%2F%2Ffonts.googleapis.com%2Fcss%3Ffamily%3DArchitects%2BDaughter;fontColor=#46495D;fillColor=#B2C9AB;" parent="1" vertex="1">
          <mxGeometry x="322.25" y="1800" width="161" height="50" as="geometry" />
        </mxCell>
        <mxCell id="15XDuqP0ykz5soVIeBwF-42" value="Notify user" style="ellipse;whiteSpace=wrap;html=1;sketch=1;hachureGap=4;jiggle=2;curveFitting=1;strokeColor=#788AA3;fontFamily=Architects Daughter;fontSource=https%3A%2F%2Ffonts.googleapis.com%2Fcss%3Ffamily%3DArchitects%2BDaughter;fontColor=#46495D;fillColor=#B2C9AB;" parent="1" vertex="1">
          <mxGeometry x="319.5" y="1890" width="161" height="50" as="geometry" />
        </mxCell>
        <mxCell id="15XDuqP0ykz5soVIeBwF-101" style="edgeStyle=orthogonalEdgeStyle;rounded=0;sketch=1;hachureGap=4;jiggle=2;curveFitting=1;orthogonalLoop=1;jettySize=auto;html=1;exitX=1;exitY=0.5;exitDx=0;exitDy=0;entryX=0;entryY=0.5;entryDx=0;entryDy=0;strokeColor=#788AA3;fontFamily=Architects Daughter;fontSource=https%3A%2F%2Ffonts.googleapis.com%2Fcss%3Ffamily%3DArchitects%2BDaughter;fontColor=#46495D;fillColor=#B2C9AB;" parent="1" source="15XDuqP0ykz5soVIeBwF-44" target="15XDuqP0ykz5soVIeBwF-45" edge="1">
          <mxGeometry relative="1" as="geometry" />
        </mxCell>
        <mxCell id="15XDuqP0ykz5soVIeBwF-44" value="Watch Live Match" style="ellipse;whiteSpace=wrap;html=1;sketch=1;hachureGap=4;jiggle=2;curveFitting=1;strokeColor=#788AA3;fontFamily=Architects Daughter;fontSource=https%3A%2F%2Ffonts.googleapis.com%2Fcss%3Ffamily%3DArchitects%2BDaughter;fontColor=#46495D;fillColor=#B2C9AB;" parent="1" vertex="1">
          <mxGeometry x="-115" y="1979.9999999999998" width="120" height="50" as="geometry" />
        </mxCell>
        <mxCell id="15XDuqP0ykz5soVIeBwF-102" style="edgeStyle=orthogonalEdgeStyle;rounded=0;sketch=1;hachureGap=4;jiggle=2;curveFitting=1;orthogonalLoop=1;jettySize=auto;html=1;exitX=1;exitY=0.5;exitDx=0;exitDy=0;entryX=0;entryY=0.5;entryDx=0;entryDy=0;strokeColor=#d79b00;fontFamily=Architects Daughter;fontSource=https%3A%2F%2Ffonts.googleapis.com%2Fcss%3Ffamily%3DArchitects%2BDaughter;fontColor=#46495D;fillColor=#ffe6cc;" parent="1" source="15XDuqP0ykz5soVIeBwF-45" target="15XDuqP0ykz5soVIeBwF-8" edge="1">
          <mxGeometry relative="1" as="geometry" />
        </mxCell>
        <mxCell id="15XDuqP0ykz5soVIeBwF-105" style="edgeStyle=orthogonalEdgeStyle;rounded=0;sketch=1;hachureGap=4;jiggle=2;curveFitting=1;orthogonalLoop=1;jettySize=auto;html=1;exitX=1;exitY=0.5;exitDx=0;exitDy=0;entryX=1;entryY=0.5;entryDx=0;entryDy=0;strokeColor=#788AA3;fontFamily=Architects Daughter;fontSource=https%3A%2F%2Ffonts.googleapis.com%2Fcss%3Ffamily%3DArchitects%2BDaughter;fontColor=#46495D;fillColor=#B2C9AB;" parent="1" source="15XDuqP0ykz5soVIeBwF-45" target="15XDuqP0ykz5soVIeBwF-46" edge="1">
          <mxGeometry relative="1" as="geometry" />
        </mxCell>
        <mxCell id="15XDuqP0ykz5soVIeBwF-45" value="Check Membership" style="ellipse;whiteSpace=wrap;html=1;sketch=1;hachureGap=4;jiggle=2;curveFitting=1;strokeColor=#788AA3;fontFamily=Architects Daughter;fontSource=https%3A%2F%2Ffonts.googleapis.com%2Fcss%3Ffamily%3DArchitects%2BDaughter;fontColor=#46495D;fillColor=#B2C9AB;" parent="1" vertex="1">
          <mxGeometry x="319.5" y="1980" width="161" height="50" as="geometry" />
        </mxCell>
        <mxCell id="15XDuqP0ykz5soVIeBwF-46" value="Display Match Data" style="ellipse;whiteSpace=wrap;html=1;sketch=1;hachureGap=4;jiggle=2;curveFitting=1;strokeColor=#788AA3;fontFamily=Architects Daughter;fontSource=https%3A%2F%2Ffonts.googleapis.com%2Fcss%3Ffamily%3DArchitects%2BDaughter;fontColor=#46495D;fillColor=#B2C9AB;" parent="1" vertex="1">
          <mxGeometry x="319.5" y="2050" width="161" height="50" as="geometry" />
        </mxCell>
        <mxCell id="15XDuqP0ykz5soVIeBwF-106" style="edgeStyle=orthogonalEdgeStyle;rounded=0;sketch=1;hachureGap=4;jiggle=2;curveFitting=1;orthogonalLoop=1;jettySize=auto;html=1;exitX=1;exitY=0.5;exitDx=0;exitDy=0;entryX=0;entryY=0.5;entryDx=0;entryDy=0;strokeColor=#788AA3;fontFamily=Architects Daughter;fontSource=https%3A%2F%2Ffonts.googleapis.com%2Fcss%3Ffamily%3DArchitects%2BDaughter;fontColor=#46495D;fillColor=#B2C9AB;" parent="1" source="15XDuqP0ykz5soVIeBwF-47" target="15XDuqP0ykz5soVIeBwF-48" edge="1">
          <mxGeometry relative="1" as="geometry" />
        </mxCell>
        <mxCell id="15XDuqP0ykz5soVIeBwF-47" value="Watch Match Repetition" style="ellipse;whiteSpace=wrap;html=1;sketch=1;hachureGap=4;jiggle=2;curveFitting=1;strokeColor=#788AA3;fontFamily=Architects Daughter;fontSource=https%3A%2F%2Ffonts.googleapis.com%2Fcss%3Ffamily%3DArchitects%2BDaughter;fontColor=#46495D;fillColor=#B2C9AB;" parent="1" vertex="1">
          <mxGeometry x="-127.5" y="2120" width="145" height="50" as="geometry" />
        </mxCell>
        <mxCell id="15XDuqP0ykz5soVIeBwF-108" style="edgeStyle=orthogonalEdgeStyle;rounded=0;sketch=1;hachureGap=4;jiggle=2;curveFitting=1;orthogonalLoop=1;jettySize=auto;html=1;exitX=1;exitY=0.5;exitDx=0;exitDy=0;entryX=0;entryY=0.5;entryDx=0;entryDy=0;strokeColor=#d79b00;fontFamily=Architects Daughter;fontSource=https%3A%2F%2Ffonts.googleapis.com%2Fcss%3Ffamily%3DArchitects%2BDaughter;fontColor=#46495D;fillColor=#ffe6cc;" parent="1" source="15XDuqP0ykz5soVIeBwF-48" target="15XDuqP0ykz5soVIeBwF-8" edge="1">
          <mxGeometry relative="1" as="geometry" />
        </mxCell>
        <mxCell id="15XDuqP0ykz5soVIeBwF-109" style="edgeStyle=orthogonalEdgeStyle;rounded=0;sketch=1;hachureGap=4;jiggle=2;curveFitting=1;orthogonalLoop=1;jettySize=auto;html=1;exitX=1;exitY=0.5;exitDx=0;exitDy=0;entryX=1;entryY=0.5;entryDx=0;entryDy=0;strokeColor=#788AA3;fontFamily=Architects Daughter;fontSource=https%3A%2F%2Ffonts.googleapis.com%2Fcss%3Ffamily%3DArchitects%2BDaughter;fontColor=#46495D;fillColor=#B2C9AB;" parent="1" source="15XDuqP0ykz5soVIeBwF-48" target="15XDuqP0ykz5soVIeBwF-49" edge="1">
          <mxGeometry relative="1" as="geometry" />
        </mxCell>
        <mxCell id="15XDuqP0ykz5soVIeBwF-48" value="Check Membership" style="ellipse;whiteSpace=wrap;html=1;sketch=1;hachureGap=4;jiggle=2;curveFitting=1;strokeColor=#788AA3;fontFamily=Architects Daughter;fontSource=https%3A%2F%2Ffonts.googleapis.com%2Fcss%3Ffamily%3DArchitects%2BDaughter;fontColor=#46495D;fillColor=#B2C9AB;" parent="1" vertex="1">
          <mxGeometry x="319.5" y="2120" width="161" height="50" as="geometry" />
        </mxCell>
        <mxCell id="15XDuqP0ykz5soVIeBwF-49" value="Display Match Data" style="ellipse;whiteSpace=wrap;html=1;sketch=1;hachureGap=4;jiggle=2;curveFitting=1;strokeColor=#788AA3;fontFamily=Architects Daughter;fontSource=https%3A%2F%2Ffonts.googleapis.com%2Fcss%3Ffamily%3DArchitects%2BDaughter;fontColor=#46495D;fillColor=#B2C9AB;" parent="1" vertex="1">
          <mxGeometry x="319.5" y="2190" width="161" height="50" as="geometry" />
        </mxCell>
        <mxCell id="15XDuqP0ykz5soVIeBwF-110" style="edgeStyle=orthogonalEdgeStyle;rounded=0;sketch=1;hachureGap=4;jiggle=2;curveFitting=1;orthogonalLoop=1;jettySize=auto;html=1;exitX=1;exitY=0.5;exitDx=0;exitDy=0;entryX=0;entryY=0.5;entryDx=0;entryDy=0;strokeColor=#788AA3;fontFamily=Architects Daughter;fontSource=https%3A%2F%2Ffonts.googleapis.com%2Fcss%3Ffamily%3DArchitects%2BDaughter;fontColor=#46495D;fillColor=#B2C9AB;" parent="1" source="15XDuqP0ykz5soVIeBwF-50" target="15XDuqP0ykz5soVIeBwF-51" edge="1">
          <mxGeometry relative="1" as="geometry" />
        </mxCell>
        <mxCell id="15XDuqP0ykz5soVIeBwF-50" value="Request Data For Videogame" style="ellipse;whiteSpace=wrap;html=1;sketch=1;hachureGap=4;jiggle=2;curveFitting=1;strokeColor=#788AA3;fontFamily=Architects Daughter;fontSource=https%3A%2F%2Ffonts.googleapis.com%2Fcss%3Ffamily%3DArchitects%2BDaughter;fontColor=#46495D;fillColor=#B2C9AB;" parent="1" vertex="1">
          <mxGeometry x="-143.75" y="2288" width="167.5" height="50" as="geometry" />
        </mxCell>
        <mxCell id="15XDuqP0ykz5soVIeBwF-111" style="edgeStyle=orthogonalEdgeStyle;rounded=0;sketch=1;hachureGap=4;jiggle=2;curveFitting=1;orthogonalLoop=1;jettySize=auto;html=1;exitX=1;exitY=0.5;exitDx=0;exitDy=0;entryX=0;entryY=0.5;entryDx=0;entryDy=0;strokeColor=#9673a6;fontFamily=Architects Daughter;fontSource=https%3A%2F%2Ffonts.googleapis.com%2Fcss%3Ffamily%3DArchitects%2BDaughter;fontColor=#46495D;fillColor=#e1d5e7;" parent="1" source="15XDuqP0ykz5soVIeBwF-51" target="15XDuqP0ykz5soVIeBwF-29" edge="1">
          <mxGeometry relative="1" as="geometry">
            <Array as="points">
              <mxPoint x="700" y="2313" />
              <mxPoint x="700" y="1063" />
            </Array>
          </mxGeometry>
        </mxCell>
        <mxCell id="15XDuqP0ykz5soVIeBwF-112" style="edgeStyle=orthogonalEdgeStyle;rounded=0;sketch=1;hachureGap=4;jiggle=2;curveFitting=1;orthogonalLoop=1;jettySize=auto;html=1;exitX=1;exitY=0.5;exitDx=0;exitDy=0;entryX=0;entryY=0.5;entryDx=0;entryDy=0;strokeColor=#ae4132;fontFamily=Architects Daughter;fontSource=https%3A%2F%2Ffonts.googleapis.com%2Fcss%3Ffamily%3DArchitects%2BDaughter;fontColor=#46495D;fillColor=#fad9d5;" parent="1" source="15XDuqP0ykz5soVIeBwF-51" target="15XDuqP0ykz5soVIeBwF-30" edge="1">
          <mxGeometry relative="1" as="geometry">
            <Array as="points">
              <mxPoint x="740" y="2313" />
              <mxPoint x="740" y="1242" />
            </Array>
          </mxGeometry>
        </mxCell>
        <mxCell id="15XDuqP0ykz5soVIeBwF-114" style="edgeStyle=orthogonalEdgeStyle;rounded=0;sketch=1;hachureGap=4;jiggle=2;curveFitting=1;orthogonalLoop=1;jettySize=auto;html=1;exitX=1;exitY=0.5;exitDx=0;exitDy=0;entryX=0;entryY=0.5;entryDx=0;entryDy=0;strokeColor=#C73500;fontFamily=Architects Daughter;fontSource=https%3A%2F%2Ffonts.googleapis.com%2Fcss%3Ffamily%3DArchitects%2BDaughter;fontColor=#46495D;fillColor=#fa6800;" parent="1" source="15XDuqP0ykz5soVIeBwF-51" target="15XDuqP0ykz5soVIeBwF-38" edge="1">
          <mxGeometry relative="1" as="geometry">
            <Array as="points">
              <mxPoint x="800" y="2313" />
              <mxPoint x="800" y="1593" />
            </Array>
          </mxGeometry>
        </mxCell>
        <mxCell id="15XDuqP0ykz5soVIeBwF-113" style="edgeStyle=orthogonalEdgeStyle;rounded=0;sketch=1;hachureGap=4;jiggle=2;curveFitting=1;orthogonalLoop=1;jettySize=auto;html=1;exitX=1;exitY=0.5;exitDx=0;exitDy=0;entryX=0;entryY=0.5;entryDx=0;entryDy=0;strokeColor=#0e8088;fontFamily=Architects Daughter;fontSource=https%3A%2F%2Ffonts.googleapis.com%2Fcss%3Ffamily%3DArchitects%2BDaughter;fontColor=#46495D;fillColor=#b0e3e6;" parent="1" source="15XDuqP0ykz5soVIeBwF-51" target="15XDuqP0ykz5soVIeBwF-34" edge="1">
          <mxGeometry relative="1" as="geometry">
            <Array as="points">
              <mxPoint x="770" y="2313" />
              <mxPoint x="770" y="1423" />
            </Array>
          </mxGeometry>
        </mxCell>
        <mxCell id="15XDuqP0ykz5soVIeBwF-51" value="Export League Data" style="ellipse;whiteSpace=wrap;html=1;sketch=1;hachureGap=4;jiggle=2;curveFitting=1;strokeColor=#788AA3;fontFamily=Architects Daughter;fontSource=https%3A%2F%2Ffonts.googleapis.com%2Fcss%3Ffamily%3DArchitects%2BDaughter;fontColor=#46495D;fillColor=#B2C9AB;" parent="1" vertex="1">
          <mxGeometry x="319.5" y="2288" width="161" height="50" as="geometry" />
        </mxCell>
        <mxCell id="15XDuqP0ykz5soVIeBwF-54" style="edgeStyle=orthogonalEdgeStyle;rounded=0;sketch=1;hachureGap=4;jiggle=2;curveFitting=1;orthogonalLoop=1;jettySize=auto;html=1;exitX=0.5;exitY=0.5;exitDx=0;exitDy=0;exitPerimeter=0;entryX=0;entryY=0.5;entryDx=0;entryDy=0;strokeColor=#788AA3;fontFamily=Architects Daughter;fontSource=https%3A%2F%2Ffonts.googleapis.com%2Fcss%3Ffamily%3DArchitects%2BDaughter;fontColor=#46495D;fillColor=#B2C9AB;" parent="1" source="15XDuqP0ykz5soVIeBwF-52" target="15XDuqP0ykz5soVIeBwF-50" edge="1">
          <mxGeometry relative="1" as="geometry" />
        </mxCell>
        <mxCell id="15XDuqP0ykz5soVIeBwF-52" value="Game Developer" style="shape=umlActor;verticalLabelPosition=bottom;verticalAlign=top;html=1;sketch=1;hachureGap=4;jiggle=2;curveFitting=1;strokeColor=#788AA3;fontFamily=Architects Daughter;fontSource=https%3A%2F%2Ffonts.googleapis.com%2Fcss%3Ffamily%3DArchitects%2BDaughter;fontColor=#46495D;fillColor=#B2C9AB;" parent="1" vertex="1">
          <mxGeometry x="-280" y="2278" width="30" height="60" as="geometry" />
        </mxCell>
      </root>
    </mxGraphModel>
  </diagram>
</mxfile>
